<svg height="480pt" viewBox="-16 0 480 480" width="480pt" xmlns="http://www.w3.org/2000/svg"><path d="m8 400c-4.417969 0-8 3.582031-8 8v64c0 4.417969 3.582031 8 8 8h432c4.417969 0 8-3.582031 8-8v-64c0-4.417969-3.582031-8-8-8h-16v-232h16c4.417969 0 8-3.582031 8-8v-32c0-4.417969-3.582031-8-8-8h-96v-16h16c9.484375.042969 18.097656-5.53125 21.945312-14.199219 3.847657-8.667969 2.207032-18.792969-4.183593-25.800781 6.390625-7.007812 8.03125-17.132812 4.183593-25.800781-3.847656-8.667969-12.460937-14.242188-21.945312-14.199219h-16v-16c0-4.417969-3.582031-8-8-8s-8 3.582031-8 8v16h-16c-9.484375-.042969-18.097656 5.53125-21.945312 14.199219-3.847657 8.667969-2.207032 18.792969 4.183593 25.800781-6.390625 7.007812-8.03125 17.132812-4.183593 25.800781 3.847656 8.667969 12.460937 14.242188 21.945312 14.199219h16v16h-96v-16h16c9.484375.042969 18.097656-5.53125 21.945312-14.199219 3.847657-8.667969 2.207032-18.792969-4.183593-25.800781 6.390625-7.007812 8.03125-17.132812 4.183593-25.800781-3.847656-8.667969-12.460937-14.242188-21.945312-14.199219h-16v-16c0-4.417969-3.582031-8-8-8s-8 3.582031-8 8v16h-16c-9.484375-.042969-18.097656 5.53125-21.945312 14.199219-3.847657 8.667969-2.207032 18.792969 4.183593 25.800781-6.390625 7.007812-8.03125 17.132812-4.183593 25.800781 3.847656 8.667969 12.460937 14.242188 21.945312 14.199219h16v16h-96v-16h16c9.484375.042969 18.097656-5.53125 21.945312-14.199219 3.847657-8.667969 2.207032-18.792969-4.183593-25.800781 6.390625-7.007812 8.03125-17.132812 4.183593-25.800781-3.847656-8.667969-12.460937-14.242188-21.945312-14.199219h-16v-16c0-4.417969-3.582031-8-8-8s-8 3.582031-8 8v16h-16c-9.484375-.042969-18.097656 5.53125-21.945312 14.199219-3.847657 8.667969-2.207032 18.792969 4.183593 25.800781-6.390625 7.007812-8.03125 17.132812-4.183593 25.800781 3.847656 8.667969 12.460937 14.242188 21.945312 14.199219h16v16h-96c-4.417969 0-8 3.582031-8 8v32c0 4.417969 3.582031 8 8 8h16v232zm304-360h48c4.417969 0 8 3.582031 8 8s-3.582031 8-8 8h-48c-4.417969 0-8-3.582031-8-8s3.582031-8 8-8zm-8 40c0-4.417969 3.582031-8 8-8h48c4.417969 0 8 3.582031 8 8s-3.582031 8-8 8h-48c-4.417969 0-8-3.582031-8-8zm-104-40h48c4.417969 0 8 3.582031 8 8s-3.582031 8-8 8h-48c-4.417969 0-8-3.582031-8-8s3.582031-8 8-8zm-8 40c0-4.417969 3.582031-8 8-8h48c4.417969 0 8 3.582031 8 8s-3.582031 8-8 8h-48c-4.417969 0-8-3.582031-8-8zm-104-40h48c4.417969 0 8 3.582031 8 8s-3.582031 8-8 8h-48c-4.417969 0-8-3.582031-8-8s3.582031-8 8-8zm-8 40c0-4.417969 3.582031-8 8-8h48c4.417969 0 8 3.582031 8 8s-3.582031 8-8 8h-48c-4.417969 0-8-3.582031-8-8zm352 352h-104c-4.417969 0-8 3.582031-8 8s3.582031 8 8 8h104v16h-416v-16h224c4.417969 0 8-3.582031 8-8s-3.582031-8-8-8h-224v-16h416zm-416-296h416v16h-416zm24 32h64v24c0 4.417969 3.582031 8 8 8s8-3.582031 8-8v-24h96v24c0 4.417969 3.582031 8 8 8s8-3.582031 8-8v-24h96v24c0 4.417969 3.582031 8 8 8s8-3.582031 8-8v-24h64v232h-64v-16c0-4.417969-3.582031-8-8-8s-8 3.582031-8 8v16h-96v-16c0-4.417969-3.582031-8-8-8s-8 3.582031-8 8v16h-96v-16c0-4.417969-3.582031-8-8-8s-8 3.582031-8 8v16h-64zm0 0"/><path d="m296 432h-24c-4.417969 0-8 3.582031-8 8s3.582031 8 8 8h24c4.417969 0 8-3.582031 8-8s-3.582031-8-8-8zm0 0"/><path d="m136 360h176c4.417969 0 8-3.582031 8-8v-128c0-4.417969-3.582031-8-8-8h-176c-4.417969 0-8 3.582031-8 8v128c0 4.417969 3.582031 8 8 8zm8-128h160v112h-160zm0 0"/><path d="m248 280h-24l14.398438-19.199219c2.652343-3.535156 1.9375-8.550781-1.597657-11.199219-3.535156-2.652343-8.550781-1.9375-11.199219 1.597657l-24 32c-1.820312 2.425781-2.113281 5.667969-.757812 8.378906s4.125 4.421875 7.15625 4.421875h20.6875l-18.34375 18.34375c-2.078125 2.007812-2.914062 4.984375-2.179688 7.78125.730469 2.796875 2.914063 4.980469 5.710938 5.710938 2.796875.734374 5.773438-.101563 7.78125-2.179688l32-32c2.285156-2.289062 2.972656-5.730469 1.734375-8.71875s-4.15625-4.9375-7.390625-4.9375zm0 0"/></svg>